<svg xmlns="http://www.w3.org/2000/svg" xmlns:osb="http://www.openswatchbook.org/uri/2009/osb" xmlns:svg="http://www.w3.org/2000/svg" id="svg2" width="314.025" height="128.487" version="1.1" viewBox="0 0 294.398 120.456"><defs id="defs4"><linearGradient id="linearGradient5784" osb:paint="solid"><stop style="stop-color:#0094de;stop-opacity:1" id="stop5786" offset="0"/></linearGradient></defs><metadata id="metadata7"/><g id="layer1" transform="translate(-164.87175,-59.149792)"><path style="fill:none;fill-rule:evenodd;stroke:#563f2b;stroke-width:1.49999976;stroke-linecap:butt;stroke-linejoin:miter;stroke-miterlimit:4;stroke-dasharray:5.99999983,2.99999991,1.49999998,2.99999991;stroke-dashoffset:0;stroke-opacity:1" id="path4138" d="m 183.69536,145.08807 0,-68.812395 0,-1.298359"/><path style="fill:none;fill-rule:evenodd;stroke:#563f2b;stroke-width:1.5;stroke-linecap:butt;stroke-linejoin:miter;stroke-miterlimit:4;stroke-dasharray:6.00000018,3.00000007,1.50000004,3.00000007;stroke-dashoffset:0;stroke-opacity:1" id="path4162" d="m 315.65581,101.12945 0,-23.787904"/><g id="g4170" transform="matrix(0.66111532,-0.37726463,0.45013066,0.77059954,80.730499,12.726463)"><path id="path4166" d="m 192.43406,216.46097 16.41498,-0.25254 0.25254,27.52666 c 0,0 -0.25254,4.29315 -6.31346,3.03046 -6.06091,-1.26269 -21.71828,-0.75762 -21.71828,-0.75762 0,0 -7.57614,-3.53553 -2.77792,-6.56599 4.79823,-3.03045 15.15229,-1.76776 15.15229,-1.76776 z" style="fill:#e13030;fill-opacity:1;fill-rule:evenodd;stroke:none;stroke-width:1px;stroke-linecap:butt;stroke-linejoin:miter;stroke-opacity:1"/><path id="path4168" d="m 192.93914,225.55235 15.65737,0 0.25253,-8.83884 -16.16244,0.67991 z" style="fill:#fff;fill-opacity:1;fill-rule:evenodd;stroke:none;stroke-width:1px;stroke-linecap:butt;stroke-linejoin:miter;stroke-opacity:1"/></g><path id="path4183" d="m 247.85294,97.59391 0,-20.252364" style="fill:none;fill-rule:evenodd;stroke:#563f2b;stroke-width:1.5;stroke-linecap:butt;stroke-linejoin:miter;stroke-miterlimit:4;stroke-dasharray:6.00000013,3.00000004,1.50000003,3.00000004;stroke-dashoffset:0;stroke-opacity:1"/><g id="g6164" transform="matrix(0.78535903,0,0,0.77599893,106.74943,-33.352233)"><path id="path4196" d="m 85.104202,244.63721 25.955768,-0.21274" style="fill:none;fill-rule:evenodd;stroke:#82c5fc;stroke-width:.8879872;stroke-linecap:round;stroke-linejoin:round;stroke-miterlimit:4;stroke-dasharray:none;stroke-opacity:1"/><path id="path4198" d="m 98.082083,231.44659 0,25.74301" style="fill:none;fill-rule:evenodd;stroke:#82c5fc;stroke-width:.8879872;stroke-linecap:round;stroke-linejoin:round;stroke-miterlimit:4;stroke-dasharray:none;stroke-opacity:1"/><path id="path4200" d="m 89.146494,234.85062 18.615816,18.61581" style="fill:none;fill-rule:evenodd;stroke:#82c5fc;stroke-width:.8879872;stroke-linecap:round;stroke-linejoin:round;stroke-miterlimit:4;stroke-dasharray:none;stroke-opacity:1"/><path id="path4202" d="M 107.01767,235.06337 88.614613,253.46643" style="fill:none;fill-rule:evenodd;stroke:#82c5fc;stroke-width:.8879872;stroke-linecap:round;stroke-linejoin:round;stroke-miterlimit:4;stroke-dasharray:none;stroke-opacity:1"/><path id="path4204" d="m 87.657229,238.0419 4.893297,0 -0.212749,-3.82954" style="fill:none;fill-rule:evenodd;stroke:#82c5fc;stroke-width:.8879872;stroke-linecap:round;stroke-linejoin:round;stroke-miterlimit:4;stroke-dasharray:none;stroke-opacity:1"/><circle id="path4206" cx="98.082" cy="244.637" r="2.766" style="fill:#68b8fc;fill-opacity:1;stroke:none;stroke-width:1.20000005;stroke-linecap:round;stroke-linejoin:round;stroke-miterlimit:4;stroke-dasharray:4.8,4.8;stroke-dashoffset:0;stroke-opacity:1"/><path id="path4208" d="m 95.529056,232.51034 2.553027,3.40404 2.553027,-3.19128" style="fill:none;fill-rule:evenodd;stroke:#82c5fc;stroke-width:.8879872;stroke-linecap:round;stroke-linejoin:round;stroke-miterlimit:4;stroke-dasharray:none;stroke-opacity:1"/><path id="path4216" d="m 104.2519,254.84932 0.21275,-4.04229 4.04229,-0.21275" style="fill:none;fill-rule:evenodd;stroke:#82c5fc;stroke-width:.8879872;stroke-linecap:round;stroke-linejoin:round;stroke-miterlimit:4;stroke-dasharray:none;stroke-opacity:1"/><path id="path4218" d="m 95.954563,255.91308 2.12752,-2.34027 2.978527,2.76578" style="fill:none;fill-rule:evenodd;stroke:#82c5fc;stroke-width:.8879872;stroke-linecap:round;stroke-linejoin:round;stroke-miterlimit:4;stroke-dasharray:none;stroke-opacity:1"/><path id="path4220" d="m 88.295485,250.80703 3.404032,0 0.212753,4.8933" style="fill:none;fill-rule:evenodd;stroke:#82c5fc;stroke-width:.8879872;stroke-linecap:round;stroke-linejoin:round;stroke-miterlimit:4;stroke-dasharray:none;stroke-opacity:1"/><path id="path4222" d="m 86.593467,241.44593 2.553027,3.19128 -2.97853,2.76579" style="fill:none;fill-rule:evenodd;stroke:#82c5fc;stroke-width:.8879872;stroke-linecap:round;stroke-linejoin:round;stroke-miterlimit:4;stroke-dasharray:none;stroke-opacity:1"/><path id="path4224" d="m 92.550526,244.42447 -2.553023,-3.40404 4.680548,-0.21276 0.212749,-4.46779 2.97853,3.61679 2.97853,-3.40403 0.63825,4.25503 4.25505,0.42552 -2.12752,2.76577 2.12752,3.40404 -4.25505,0 0,4.68054 -3.404027,-2.97853 -2.765776,2.97853 -0.638256,-4.04229 -3.829539,-0.42551 z" style="fill:none;fill-rule:evenodd;stroke:#82c5fc;stroke-width:.8879872;stroke-linecap:round;stroke-linejoin:round;stroke-miterlimit:4;stroke-dasharray:none;stroke-opacity:1"/><path id="path4290" d="m 104.40656,233.88478 0.1477,3.39709 3.9879,0.14771 -0.29541,-0.14771" style="fill:none;fill-rule:evenodd;stroke:#68b8fc;stroke-width:.96869177px;stroke-linecap:butt;stroke-linejoin:miter;stroke-opacity:1"/><path id="path4292" d="m 109.72376,241.71287 -1.7724,2.6586 1.6247,3.2494" style="fill:none;fill-rule:evenodd;stroke:#82c5fc;stroke-width:.96869177px;stroke-linecap:butt;stroke-linejoin:miter;stroke-opacity:1"/></g><g id="g6254" transform="matrix(1.0312176,0,0,1.0312176,-7.4098137,-45.350266)"><ellipse id="path4140" cx="247.488" cy="149.762" rx="10.926" ry="10.8" style="fill:#ffad21;fill-opacity:1;stroke:none;stroke-width:.50810522;stroke-linecap:round;stroke-linejoin:round;stroke-miterlimit:4;stroke-dasharray:none;stroke-dashoffset:0;stroke-opacity:1"/><path id="path4294" d="m 142.39964,209.45999 c 0.17625,0.30214 -0.32032,0.38664 -0.50217,0.29293 -0.4928,-0.25394 -0.40051,-0.94646 -0.0837,-1.29726 0.56673,-0.6275 1.56443,-0.45593 2.09237,0.12554 0.77476,0.85333 0.51536,2.19164 -0.33478,2.88746 -1.13311,0.92743 -2.82225,0.57667 -3.68257,-0.54401 -1.08262,-1.41027 -0.63895,-3.4545 0.75326,-4.47767 1.68615,-1.23919 4.08768,-0.70182 5.27276,0.96249 1.39657,1.96134 0.76505,4.72146 -1.17173,6.06787 -2.23609,1.55448 -5.35561,0.82852 -6.86296,-1.38097 -1.71275,-2.51057 -0.89217,-5.99003 1.5902,-7.65806 2.78485,-1.87128 6.62466,-0.95594 8.45316,1.79944 2.02999,3.059 1.0198,7.25944 -2.00868,9.24826" transform="matrix(1.4434714,0,0,1.4267165,42.257104,-147.89723)" style="fill:none;fill-rule:evenodd;stroke:#fff;stroke-width:.43434593px;stroke-linecap:butt;stroke-linejoin:miter;stroke-opacity:1"/></g><path id="path4312" d="m 386.20548,113.61815 0,-28.893615" style="fill:none;fill-rule:evenodd;stroke:#563f2b;stroke-width:1.50000012;stroke-linecap:butt;stroke-linejoin:miter;stroke-miterlimit:4;stroke-dasharray:6.00000009,3.00000001,1.50000001,3.00000001;stroke-dashoffset:0;stroke-opacity:1"/><g id="g6248" transform="matrix(0.85539113,0,0,0.83718866,56.928916,1.3345808)"><ellipse style="fill:#ed4d4d;fill-opacity:1;stroke:#ed4d4d;stroke-width:.45636559;stroke-linecap:butt;stroke-linejoin:round;stroke-miterlimit:4;stroke-dasharray:none;stroke-dashoffset:0;stroke-opacity:1" id="circle5796" cx="377.523" cy="-158.448" rx="2.873" ry="2.643" transform="scale(1,-1)"/><path id="path4336" d="m 372.13998,143.47276 c 0,0 1.99355,-16.74834 13.55602,-15.17203 11.56249,1.57631 8.97091,17.73355 8.97091,17.73355 0,0 7.57542,9.65492 1.19612,11.0342 -6.37931,1.37926 -23.12497,-1.18224 -26.91269,-3.15264 -3.78772,-1.97041 -0.99675,-7.09342 0.59806,-8.07861 1.59482,-0.9852 2.59158,-2.36447 2.59158,-2.36447 z" style="fill:#19af99;fill-opacity:1;fill-rule:evenodd;stroke:none;stroke-width:1px;stroke-linecap:butt;stroke-linejoin:miter;stroke-opacity:1"/><path id="path5790" d="m 372.19968,144.74784 c 0,0 6.3001,2.38307 11.45963,3.15009 5.15954,0.76702 10.77241,-0.0279 10.77241,-0.0279 l 0.007,-0.19694" style="fill:none;fill-rule:evenodd;stroke:#ed4d4d;stroke-width:.70901793;stroke-linecap:butt;stroke-linejoin:miter;stroke-miterlimit:4;stroke-dasharray:none;stroke-dashoffset:0;stroke-opacity:1"/><ellipse id="path5794" cx="386.294" cy="-124.754" rx="3.588" ry="3.547" transform="scale(1,-1)" style="fill:none;fill-opacity:1;stroke:#ed4d4d;stroke-width:.59084821;stroke-linecap:butt;stroke-linejoin:round;stroke-miterlimit:4;stroke-dasharray:none;stroke-dashoffset:0;stroke-opacity:1"/></g><path id="path5839" d="m 445.32459,153.27376 0,-71.794524 0,-1.354625" style="fill:none;fill-rule:evenodd;stroke:#563f2b;stroke-width:1.5;stroke-linecap:butt;stroke-linejoin:miter;stroke-miterlimit:4;stroke-dasharray:6.0000003,3.00000015,1.50000006,3.00000015;stroke-dashoffset:0;stroke-opacity:1"/><path style="fill:none;fill-rule:evenodd;stroke:#421f5a;stroke-width:.99999994px;stroke-linecap:butt;stroke-linejoin:miter;stroke-opacity:1" id="path5991" d="m 170.72608,75.043041 c 6.49562,2.227524 46.91282,5.940062 85.16482,2.970027 38.252,-2.970027 132.07765,3.712549 157.3384,3.712549 25.26075,0 32.4781,-0.742514 32.4781,-0.742514 l 0,1.485014"/><path id="path6027" d="m 364.47049,79.867962 c -9.97114,4.588639 0,11.145652 0,0 z" style="fill:#6c487c;fill-opacity:1;fill-rule:evenodd;stroke:#6c487c;stroke-width:.43693265px;stroke-linecap:butt;stroke-linejoin:miter;stroke-opacity:1"/><path style="fill:#6c487c;fill-opacity:1;fill-rule:evenodd;stroke:#6c487c;stroke-width:.63478029px;stroke-linecap:butt;stroke-linejoin:miter;stroke-opacity:1" id="path6040" d="m 290.38738,78.519512 c -14.48616,6.666428 0,16.192502 0,0 z"/><path id="path6042" d="m 344.54338,80.000177 c -12.60491,5.800677 0,14.089634 0,0 z" style="fill:#6c487c;fill-opacity:1;fill-rule:evenodd;stroke:#6c487c;stroke-width:.55234373px;stroke-linecap:butt;stroke-linejoin:miter;stroke-opacity:1"/><path style="fill:#6c487c;fill-opacity:1;fill-rule:evenodd;stroke:#6c487c;stroke-width:.55234373px;stroke-linecap:butt;stroke-linejoin:miter;stroke-opacity:1" id="path6044" d="m 300.14342,78.42507 c -12.60489,5.800686 0,14.089649 0,0 z"/><path id="path6046" d="m 323.61927,78.950102 c -12.60491,5.800685 0,14.089647 0,0 z" style="fill:#6c487c;fill-opacity:1;fill-rule:evenodd;stroke:#6c487c;stroke-width:.55234373px;stroke-linecap:butt;stroke-linejoin:miter;stroke-opacity:1"/><path style="fill:#6c487c;fill-opacity:1;fill-rule:evenodd;stroke:#6c487c;stroke-width:.55234373px;stroke-linecap:butt;stroke-linejoin:miter;stroke-opacity:1" id="path6048" d="m 309.83996,78.42507 c -12.6049,5.800686 0,14.089649 0,0 z"/><path id="path6050" d="m 333.3158,80.000177 c -12.60489,5.800677 0,14.089634 0,0 z" style="fill:#6c487c;fill-opacity:1;fill-rule:evenodd;stroke:#6c487c;stroke-width:.55234373px;stroke-linecap:butt;stroke-linejoin:miter;stroke-opacity:1"/><path style="fill:#6c487c;fill-opacity:1;fill-rule:evenodd;stroke:#6c487c;stroke-width:.55234373px;stroke-linecap:butt;stroke-linejoin:miter;stroke-opacity:1" id="path6052" d="m 268.50208,77.900026 c -12.60489,5.800687 0,14.089649 0,0 z"/><path id="path6054" d="m 222.09258,79.949637 c -11.59841,5.337514 0,12.964616 0,0 z" style="fill:#6c487c;fill-opacity:1;fill-rule:evenodd;stroke:#6c487c;stroke-width:.50824016px;stroke-linecap:butt;stroke-linejoin:miter;stroke-opacity:1"/><path style="fill:#6c487c;fill-opacity:1;fill-rule:evenodd;stroke:#6c487c;stroke-width:.68424219px;stroke-linecap:butt;stroke-linejoin:miter;stroke-opacity:1" id="path6056" d="m 211.24833,80.151256 c -15.61491,7.185861 0,17.454224 0,0 z"/><path id="path6058" d="m 200.11595,79.475134 c -12.6049,5.800674 0,14.089639 0,0 z" style="fill:#6c487c;fill-opacity:1;fill-rule:evenodd;stroke:#6c487c;stroke-width:.55234373px;stroke-linecap:butt;stroke-linejoin:miter;stroke-opacity:1"/><path style="fill:#6c487c;fill-opacity:1;fill-rule:evenodd;stroke:#6c487c;stroke-width:.55234373px;stroke-linecap:butt;stroke-linejoin:miter;stroke-opacity:1" id="path6060" d="m 189.90907,78.950102 c -12.6049,5.800685 0,14.089647 0,0 z"/><path id="path6062" d="m 177.66081,76.849962 c -12.6049,5.800688 0,14.089653 0,0 z" style="fill:#6c487c;fill-opacity:1;fill-rule:evenodd;stroke:#6c487c;stroke-width:.55234373px;stroke-linecap:butt;stroke-linejoin:miter;stroke-opacity:1"/><path style="fill:#6c487c;fill-opacity:1;fill-rule:evenodd;stroke:#6c487c;stroke-width:.55234373px;stroke-linecap:butt;stroke-linejoin:miter;stroke-opacity:1" id="path6064" d="m 402.72264,82.362806 c -12.6049,5.800688 0,14.08965 0,0 z"/><path id="path6066" d="m 354.23991,80.525199 c -12.6049,5.800685 0,14.089648 0,0 z" style="fill:#6c487c;fill-opacity:1;fill-rule:evenodd;stroke:#6c487c;stroke-width:.55234373px;stroke-linecap:butt;stroke-linejoin:miter;stroke-opacity:1"/><path style="fill:#6c487c;fill-opacity:1;fill-rule:evenodd;stroke:#6c487c;stroke-width:.55234373px;stroke-linecap:butt;stroke-linejoin:miter;stroke-opacity:1" id="path6068" d="m 241.96418,78.950102 c -12.6049,5.800685 0,14.089647 0,0 z"/><path id="path6070" d="m 232.77799,79.475134 c -12.60491,5.800674 0,14.089639 0,0 z" style="fill:#6c487c;fill-opacity:1;fill-rule:evenodd;stroke:#6c487c;stroke-width:.55234373px;stroke-linecap:butt;stroke-linejoin:miter;stroke-opacity:1"/><path style="fill:#6c487c;fill-opacity:1;fill-rule:evenodd;stroke:#6c487c;stroke-width:.44208482px;stroke-linecap:butt;stroke-linejoin:miter;stroke-opacity:1" id="path6072" d="m 279.29889,78.29877 c -10.08871,4.64274 0,11.277078 0,0 z"/><path style="fill:#6c487c;fill-opacity:1;fill-rule:evenodd;stroke:#6c487c;stroke-width:.44517627px;stroke-linecap:butt;stroke-linejoin:miter;stroke-opacity:1" id="path6074" d="m 394.15988,81.715012 c -10.15926,4.675213 0,11.355925 0,0 z"/><path id="path6076" d="m 384.73298,81.312762 c -12.60489,5.800688 0,14.089645 0,0 z" style="fill:#6c487c;fill-opacity:1;fill-rule:evenodd;stroke:#6c487c;stroke-width:.55234373px;stroke-linecap:butt;stroke-linejoin:miter;stroke-opacity:1"/><path style="fill:#6c487c;fill-opacity:1;fill-rule:evenodd;stroke:#6c487c;stroke-width:.55234373px;stroke-linecap:butt;stroke-linejoin:miter;stroke-opacity:1" id="path6078" d="m 258.2952,78.42507 c -12.60491,5.800686 0,14.089649 0,0 z"/><path style="fill:#6c487c;fill-opacity:1;fill-rule:evenodd;stroke:#6c487c;stroke-width:.63478029px;stroke-linecap:butt;stroke-linejoin:miter;stroke-opacity:1" id="path6080" d="m 374.59418,81.144673 c -14.48615,6.666436 0,16.192501 0,0 z"/><path style="fill:#6c487c;fill-opacity:1;fill-rule:evenodd;stroke:#6c487c;stroke-width:.62369132px;stroke-linecap:butt;stroke-linejoin:miter;stroke-opacity:1" id="path6084" d="m 383.96116,80.124526 c -0.67343,-16.026004 -14.37614,-5.863026 0,0 z"/><path id="path6086" d="m 394.0113,80.529386 c -0.5353,-12.738225 -11.42685,-4.660209 0,0 z" style="fill:#6c487c;fill-opacity:1;fill-rule:evenodd;stroke:#6c487c;stroke-width:.49573907px;stroke-linecap:butt;stroke-linejoin:miter;stroke-opacity:1"/><path id="path6088" d="m 373.69837,79.646132 c 1.09704,-16.287106 -13.88891,-7.617839 0,0 z" style="fill:#6c487c;fill-opacity:1;fill-rule:evenodd;stroke:#6c487c;stroke-width:.63478029px;stroke-linecap:butt;stroke-linejoin:miter;stroke-opacity:1"/><path style="fill:#6c487c;fill-opacity:1;fill-rule:evenodd;stroke:#6c487c;stroke-width:.49573907px;stroke-linecap:butt;stroke-linejoin:miter;stroke-opacity:1" id="path6090" d="m 345.01826,78.95429 c -0.5353,-12.738225 -11.42685,-4.66021 0,0 z"/><path id="path6092" d="m 354.20446,79.216811 c -0.53531,-12.738226 -11.42685,-4.660208 0,0 z" style="fill:#6c487c;fill-opacity:1;fill-rule:evenodd;stroke:#6c487c;stroke-width:.49573907px;stroke-linecap:butt;stroke-linejoin:miter;stroke-opacity:1"/><path style="fill:#6c487c;fill-opacity:1;fill-rule:evenodd;stroke:#6c487c;stroke-width:.40082893px;stroke-linecap:butt;stroke-linejoin:miter;stroke-opacity:1" id="path6094" d="m 364.19159,79.39928 c -0.43283,-10.299478 -9.23917,-3.768013 0,0 z"/><path id="path6096" d="m 402.43198,81.316939 c -0.53531,-12.738225 -11.42686,-4.660209 0,0 z" style="fill:#6c487c;fill-opacity:1;fill-rule:evenodd;stroke:#6c487c;stroke-width:.49573907px;stroke-linecap:butt;stroke-linejoin:miter;stroke-opacity:1"/><path id="path6098" d="m 232.48735,78.429258 c -0.53529,-12.738215 -11.42685,-4.6602 0,0 z" style="fill:#6c487c;fill-opacity:1;fill-rule:evenodd;stroke:#6c487c;stroke-width:.49573907px;stroke-linecap:butt;stroke-linejoin:miter;stroke-opacity:1"/><path style="fill:#6c487c;fill-opacity:1;fill-rule:evenodd;stroke:#6c487c;stroke-width:.49573907px;stroke-linecap:butt;stroke-linejoin:miter;stroke-opacity:1" id="path6100" d="m 241.92873,78.429258 c -0.5353,-12.738215 -11.42685,-4.6602 0,0 z"/><path id="path6102" d="m 258.25973,77.641714 c -0.53529,-12.738224 -11.42685,-4.660208 0,0 z" style="fill:#6c487c;fill-opacity:1;fill-rule:evenodd;stroke:#6c487c;stroke-width:.49573907px;stroke-linecap:butt;stroke-linejoin:miter;stroke-opacity:1"/><path style="fill:#6c487c;fill-opacity:1;fill-rule:evenodd;stroke:#6c487c;stroke-width:.49573907px;stroke-linecap:butt;stroke-linejoin:miter;stroke-opacity:1" id="path6104" d="m 267.95628,77.116672 c -0.53531,-12.738225 -11.42685,-4.660209 0,0 z"/><path id="path6106" d="m 278.92869,77.641714 c -0.53531,-12.738224 -11.42686,-4.660208 0,0 z" style="fill:#6c487c;fill-opacity:1;fill-rule:evenodd;stroke:#6c487c;stroke-width:.49573907px;stroke-linecap:butt;stroke-linejoin:miter;stroke-opacity:1"/><path style="fill:#6c487c;fill-opacity:1;fill-rule:evenodd;stroke:#6c487c;stroke-width:.49573907px;stroke-linecap:butt;stroke-linejoin:miter;stroke-opacity:1" id="path6108" d="m 289.90108,77.379194 c -0.53529,-12.738225 -11.42685,-4.66021 0,0 z"/><path id="path6110" d="m 301.74223,77.265973 c -0.39036,-9.289296 -8.33299,-3.398431 0,0 z" style="fill:#6c487c;fill-opacity:1;fill-rule:evenodd;stroke:#6c487c;stroke-width:.36151582px;stroke-linecap:butt;stroke-linejoin:miter;stroke-opacity:1"/><path style="fill:#9265a6;fill-opacity:1;fill-rule:evenodd;stroke:#6c487c;stroke-width:.49573907px;stroke-linecap:butt;stroke-linejoin:miter;stroke-opacity:1" id="path6112" d="m 310.05967,77.379194 c -0.53529,-12.738225 -11.42685,-4.66021 0,0 z"/><path id="path6114" d="m 323.32863,77.904214 c -0.53529,-12.738214 -11.42685,-4.660196 0,0 z" style="fill:#6c487c;fill-opacity:1;fill-rule:evenodd;stroke:#6c487c;stroke-width:.49573907px;stroke-linecap:butt;stroke-linejoin:miter;stroke-opacity:1"/><path style="fill:#6c487c;fill-opacity:1;fill-rule:evenodd;stroke:#6c487c;stroke-width:.49573907px;stroke-linecap:butt;stroke-linejoin:miter;stroke-opacity:1" id="path6116" d="m 333.02515,77.904214 c -0.53529,-12.738214 -11.42684,-4.660196 0,0 z"/><path style="fill:#6c487c;fill-opacity:1;fill-rule:evenodd;stroke:#6c487c;stroke-width:.49573907px;stroke-linecap:butt;stroke-linejoin:miter;stroke-opacity:1" id="path6118" d="m 177.88052,75.8041 c -0.5353,-12.738227 -11.42685,-4.66021 0,0 z"/><path id="path6120" d="m 189.87361,78.166736 c -0.5353,-12.738214 -11.42686,-4.660197 0,0 z" style="fill:#6c487c;fill-opacity:1;fill-rule:evenodd;stroke:#6c487c;stroke-width:.49573907px;stroke-linecap:butt;stroke-linejoin:miter;stroke-opacity:1"/><path style="fill:#6c487c;fill-opacity:1;fill-rule:evenodd;stroke:#6c487c;stroke-width:.49573907px;stroke-linecap:butt;stroke-linejoin:miter;stroke-opacity:1" id="path6122" d="m 200.33568,78.691781 c -0.53531,-12.738217 -11.42686,-4.6602 0,0 z"/><path id="path6124" d="m 211.20965,78.549439 c -0.67345,-16.026003 -14.37618,-5.863015 0,0 z" style="fill:#6c487c;fill-opacity:1;fill-rule:evenodd;stroke:#6c487c;stroke-width:.62369126px;stroke-linecap:butt;stroke-linejoin:miter;stroke-opacity:1"/><path style="fill:#6c487c;fill-opacity:1;fill-rule:evenodd;stroke:#6c487c;stroke-width:.49573907px;stroke-linecap:butt;stroke-linejoin:miter;stroke-opacity:1" id="path6126" d="m 222.28046,79.216811 c -0.53529,-12.738226 -11.42685,-4.660208 0,0 z"/><path id="path6128" d="m 171.51416,75.223197 c -3.86505,-12.114232 -12.22622,-1.306085 0,0 z" style="fill:#6c487c;fill-opacity:1;fill-rule:evenodd;stroke:#6c487c;stroke-width:.49573907px;stroke-linecap:butt;stroke-linejoin:miter;stroke-opacity:1"/><path id="path6130" d="m 412.84618,82.258438 c -14.48615,6.666433 0,16.192503 0,0 z" style="fill:#6c487c;fill-opacity:1;fill-rule:evenodd;stroke:#6c487c;stroke-width:.63478029px;stroke-linecap:butt;stroke-linejoin:miter;stroke-opacity:1"/><path style="fill:#6c487c;fill-opacity:1;fill-rule:evenodd;stroke:#6c487c;stroke-width:.63478029px;stroke-linecap:butt;stroke-linejoin:miter;stroke-opacity:1" id="path6132" d="m 412.13079,81.688026 c 1.09704,-16.287098 -13.88889,-7.617841 0,0 z"/><path id="path6134" d="m 420.94646,82.177182 c -12.60489,5.800671 0,14.089641 0,0 z" style="fill:#6c487c;fill-opacity:1;fill-rule:evenodd;stroke:#6c487c;stroke-width:.55234373px;stroke-linecap:butt;stroke-linejoin:miter;stroke-opacity:1"/><path style="fill:#6c487c;fill-opacity:1;fill-rule:evenodd;stroke:#6c487c;stroke-width:.49573907px;stroke-linecap:butt;stroke-linejoin:miter;stroke-opacity:1" id="path6136" d="m 426.61012,81.131307 c -0.53529,-12.738216 -11.42684,-4.660199 0,0 z"/><path id="path6138" d="m 437.2111,80.945524 c 1.09705,-16.287107 -13.88889,-7.61784 0,0 z" style="fill:#6c487c;fill-opacity:1;fill-rule:evenodd;stroke:#6c487c;stroke-width:.63478029px;stroke-linecap:butt;stroke-linejoin:miter;stroke-opacity:1"/><path style="fill:#6c487c;fill-opacity:1;fill-rule:evenodd;stroke:#6c487c;stroke-width:.63478029px;stroke-linecap:butt;stroke-linejoin:miter;stroke-opacity:1" id="path6140" d="m 443.33952,81.144673 c -14.48616,6.666436 0,16.192501 0,0 z"/><path style="fill:none;fill-rule:evenodd;stroke:#421f5a;stroke-width:.99999994px;stroke-linecap:butt;stroke-linejoin:miter;stroke-opacity:1" id="path6142" d="m 272.93271,77.317166 c 0,0 -2.55173,7.875488 -3.57242,9.450584"/><ellipse id="circle6144" cx="281.8" cy="-27.889" rx="4.452" ry="5.831" transform="matrix(0.90941944,0.41588014,-0.39663346,0.91797707,0,0)" style="fill:#de0014;fill-opacity:1;stroke:none;stroke-width:.50810522;stroke-linecap:round;stroke-linejoin:round;stroke-miterlimit:4;stroke-dasharray:none;stroke-dashoffset:0;stroke-opacity:1"/><path id="path6146" d="m 226.74161,78.98781 c 0,0 -2.55171,7.875493 -3.5724,9.450585" style="fill:none;fill-rule:evenodd;stroke:#421f5a;stroke-width:.99999994px;stroke-linecap:butt;stroke-linejoin:miter;stroke-opacity:1"/><ellipse style="fill:#de0014;fill-opacity:1;stroke:none;stroke-width:.50810522;stroke-linecap:round;stroke-linejoin:round;stroke-miterlimit:4;stroke-dasharray:none;stroke-dashoffset:0;stroke-opacity:1" id="ellipse6148" cx="241.116" cy="-.376" rx="4.376" ry="5.401" transform="matrix(0.92243242,0.38615856,-0.42683262,0.90433064,0,0)"/><path style="fill:none;fill-rule:evenodd;stroke:#421f5a;stroke-width:.99999994px;stroke-linecap:butt;stroke-linejoin:miter;stroke-opacity:1" id="path6150" d="m 247.61609,78.042485 c 0,0 -3.87139,-7.283675 -4.29829,-9.125053"/><ellipse id="ellipse6152" cx="-120.241" cy="-279.361" rx="5.222" ry="4.573" transform="matrix(-0.23999388,0.9707744,-0.75941127,-0.65061089,0,0)" style="fill:#de0014;fill-opacity:1;stroke:none;stroke-width:.50810522;stroke-linecap:round;stroke-linejoin:round;stroke-miterlimit:4;stroke-dasharray:none;stroke-dashoffset:0;stroke-opacity:1"/><path id="path6160" d="m 433.0867,81.159583 c 0,0 -6.12923,15.797899 -8.5809,18.957487" style="fill:none;fill-rule:evenodd;stroke:#421f5a;stroke-width:1.0859009px;stroke-linecap:butt;stroke-linejoin:miter;stroke-opacity:1"/><ellipse style="fill:#de0014;fill-opacity:1;stroke:none;stroke-width:.50810522;stroke-linecap:round;stroke-linejoin:round;stroke-miterlimit:4;stroke-dasharray:none;stroke-dashoffset:0;stroke-opacity:1" id="ellipse6162" cx="429.486" cy="-81.409" rx="4.452" ry="5.831" transform="matrix(0.90941944,0.41588014,-0.39663346,0.91797707,0,0)"/><g id="g6180" transform="matrix(1.0076351,0,0,0.99577781,347.00821,-76.846971)"><path style="fill:none;fill-rule:evenodd;stroke:#82c5fc;stroke-width:.69205165;stroke-linecap:round;stroke-linejoin:round;stroke-miterlimit:4;stroke-dasharray:none;stroke-opacity:1" id="path6182" d="m 85.104202,244.63721 25.955768,-0.21274"/><path style="fill:none;fill-rule:evenodd;stroke:#82c5fc;stroke-width:.69205165;stroke-linecap:round;stroke-linejoin:round;stroke-miterlimit:4;stroke-dasharray:none;stroke-opacity:1" id="path6184" d="m 98.082083,231.44659 0,25.74301"/><path style="fill:none;fill-rule:evenodd;stroke:#82c5fc;stroke-width:.69205165;stroke-linecap:round;stroke-linejoin:round;stroke-miterlimit:4;stroke-dasharray:none;stroke-opacity:1" id="path6186" d="m 89.146494,234.85062 18.615816,18.61581"/><path style="fill:none;fill-rule:evenodd;stroke:#82c5fc;stroke-width:.69205165;stroke-linecap:round;stroke-linejoin:round;stroke-miterlimit:4;stroke-dasharray:none;stroke-opacity:1" id="path6188" d="M 107.01767,235.06337 88.614613,253.46643"/><path style="fill:none;fill-rule:evenodd;stroke:#82c5fc;stroke-width:.69205165;stroke-linecap:round;stroke-linejoin:round;stroke-miterlimit:4;stroke-dasharray:none;stroke-opacity:1" id="path6190" d="m 87.657229,238.0419 4.893297,0 -0.212749,-3.82954"/><circle style="fill:#68b8fc;fill-opacity:1;stroke:none;stroke-width:1.20000005;stroke-linecap:round;stroke-linejoin:round;stroke-miterlimit:4;stroke-dasharray:4.8,4.8;stroke-dashoffset:0;stroke-opacity:1" id="circle6192" cx="98.082" cy="244.637" r="2.766"/><path style="fill:none;fill-rule:evenodd;stroke:#82c5fc;stroke-width:.69205165;stroke-linecap:round;stroke-linejoin:round;stroke-miterlimit:4;stroke-dasharray:none;stroke-opacity:1" id="path6194" d="m 95.529056,232.51034 2.553027,3.40404 2.553027,-3.19128"/><path style="fill:none;fill-rule:evenodd;stroke:#82c5fc;stroke-width:.69205165;stroke-linecap:round;stroke-linejoin:round;stroke-miterlimit:4;stroke-dasharray:none;stroke-opacity:1" id="path6196" d="m 104.2519,254.84932 0.21275,-4.04229 4.04229,-0.21275"/><path style="fill:none;fill-rule:evenodd;stroke:#82c5fc;stroke-width:.69205165;stroke-linecap:round;stroke-linejoin:round;stroke-miterlimit:4;stroke-dasharray:none;stroke-opacity:1" id="path6198" d="m 95.954563,255.91308 2.12752,-2.34027 2.978527,2.76578"/><path style="fill:none;fill-rule:evenodd;stroke:#82c5fc;stroke-width:.69205165;stroke-linecap:round;stroke-linejoin:round;stroke-miterlimit:4;stroke-dasharray:none;stroke-opacity:1" id="path6200" d="m 88.295485,250.80703 3.404032,0 0.212753,4.8933"/><path style="fill:none;fill-rule:evenodd;stroke:#82c5fc;stroke-width:.69205165;stroke-linecap:round;stroke-linejoin:round;stroke-miterlimit:4;stroke-dasharray:none;stroke-opacity:1" id="path6202" d="m 86.593467,241.44593 2.553027,3.19128 -2.97853,2.76579"/><path style="fill:none;fill-rule:evenodd;stroke:#82c5fc;stroke-width:.69205165;stroke-linecap:round;stroke-linejoin:round;stroke-miterlimit:4;stroke-dasharray:none;stroke-opacity:1" id="path6204" d="m 92.550526,244.42447 -2.553023,-3.40404 4.680548,-0.21276 0.212749,-4.46779 2.97853,3.61679 2.97853,-3.40403 0.63825,4.25503 4.25505,0.42552 -2.12752,2.76577 2.12752,3.40404 -4.25505,0 0,4.68054 -3.404027,-2.97853 -2.765776,2.97853 -0.638256,-4.04229 -3.829539,-0.42551 z"/><path style="fill:none;fill-rule:evenodd;stroke:#68b8fc;stroke-width:.75494868px;stroke-linecap:butt;stroke-linejoin:miter;stroke-opacity:1" id="path6206" d="m 104.40656,233.88478 0.1477,3.39709 3.9879,0.14771 -0.29541,-0.14771"/><path style="fill:none;fill-rule:evenodd;stroke:#82c5fc;stroke-width:.75494868px;stroke-linecap:butt;stroke-linejoin:miter;stroke-opacity:1" id="path6208" d="m 109.72376,241.71287 -1.7724,2.6586 1.6247,3.2494"/></g></g></svg>